REM DIRINDEX 1\2,1\3
REM DIRNAME cjc116,folder01,folder02
TITLE ""
FILE "Disc2Track04.mp3" MP3
  TRACK 01 AUDIO
    TITLE "0:"
    INDEX 01 00:00:00
  TRACK 02 AUDIO
    TITLE "3:cjc116_1884"
    INDEX 01 00:00:17
  TRACK 03 AUDIO
    TITLE "0:"
    INDEX 01 00:09:18
  TRACK 04 AUDIO
    TITLE "3:cjc116_1885"
    INDEX 01 00:09:69
  TRACK 05 AUDIO
    TITLE "0:"
    INDEX 01 00:11:48
  TRACK 06 AUDIO
    TITLE "3:cjc116_1886"
    INDEX 01 00:12:34
  TRACK 07 AUDIO
    TITLE "0:"
    INDEX 01 00:15:13
  TRACK 08 AUDIO
    TITLE "2:cjc116_1887"
    INDEX 01 00:15:68
  TRACK 09 AUDIO
    TITLE "0:"
    INDEX 01 00:17:59
  TRACK 10 AUDIO
    TITLE "2:cjc116_1888"
    INDEX 01 00:18:27
  TRACK 11 AUDIO
    TITLE "0:"
    INDEX 01 00:20:10
  TRACK 12 AUDIO
    TITLE "2:cjc116_1889"
    INDEX 01 00:20:45
  TRACK 13 AUDIO
    TITLE "0:"
    INDEX 01 00:22:13
  TRACK 14 AUDIO
    TITLE "2:cjc116_1890"
    INDEX 01 00:22:54
  TRACK 15 AUDIO
    TITLE "0:"
    INDEX 01 00:24:16
  TRACK 16 AUDIO
    TITLE "2:cjc116_1891"
    INDEX 01 00:24:55
  TRACK 17 AUDIO
    TITLE "0:"
    INDEX 01 00:26:69
  TRACK 18 AUDIO
    TITLE "2:cjc116_1892"
    INDEX 01 00:27:34
  TRACK 19 AUDIO
    TITLE "0:"
    INDEX 01 00:29:15
  TRACK 20 AUDIO
    TITLE "2:cjc116_1893"
    INDEX 01 00:29:52
  TRACK 21 AUDIO
    TITLE "0:"
    INDEX 01 00:31:69
  TRACK 22 AUDIO
    TITLE "2:cjc116_1894"
    INDEX 01 00:32:39
  TRACK 23 AUDIO
    TITLE "0:"
    INDEX 01 00:34:10
  TRACK 24 AUDIO
    TITLE "2:cjc116_1895"
    INDEX 01 00:34:47
  TRACK 25 AUDIO
    TITLE "0:"
    INDEX 01 00:36:11
  TRACK 26 AUDIO
    TITLE "2:cjc116_1896"
    INDEX 01 00:36:48
  TRACK 27 AUDIO
    TITLE "0:"
    INDEX 01 00:38:61
  TRACK 28 AUDIO
    TITLE "2:cjc116_1897"
    INDEX 01 00:39:25
  TRACK 29 AUDIO
    TITLE "0:"
    INDEX 01 00:40:60
  TRACK 30 AUDIO
    TITLE "2:cjc116_1898"
    INDEX 01 00:41:36
  TRACK 31 AUDIO
    TITLE "0:"
    INDEX 01 00:43:03
  TRACK 32 AUDIO
    TITLE "2:cjc116_1899"
    INDEX 01 00:43:44
  TRACK 33 AUDIO
    TITLE "0:"
    INDEX 01 00:45:14
  TRACK 34 AUDIO
    TITLE "2:cjc116_1900"
    INDEX 01 00:45:61
  TRACK 35 AUDIO
    TITLE "0:"
    INDEX 01 00:47:56
  TRACK 36 AUDIO
    TITLE "2:cjc116_1901"
    INDEX 01 00:48:18
  TRACK 37 AUDIO
    TITLE "0:"
    INDEX 01 00:49:55
  TRACK 38 AUDIO
    TITLE "2:cjc116_1902"
    INDEX 01 00:50:21
  TRACK 39 AUDIO
    TITLE "0:"
    INDEX 01 00:51:40
  TRACK 40 AUDIO
    TITLE "2:cjc116_1903"
    INDEX 01 00:52:02
  TRACK 41 AUDIO
    TITLE "0:"
    INDEX 01 00:53:68
  TRACK 42 AUDIO
    TITLE "2:cjc116_1904"
    INDEX 01 00:54:34
  TRACK 43 AUDIO
    TITLE "0:"
    INDEX 01 00:55:46
  TRACK 44 AUDIO
    TITLE "2:cjc116_1905"
    INDEX 01 00:56:10
  TRACK 45 AUDIO
    TITLE "0:"
    INDEX 01 00:57:56
  TRACK 46 AUDIO
    TITLE "2:cjc116_1906"
    INDEX 01 00:58:18
  TRACK 47 AUDIO
    TITLE "0:"
    INDEX 01 00:59:24
  TRACK 48 AUDIO
    TITLE "2:cjc116_1907"
    INDEX 01 00:59:63
  TRACK 49 AUDIO
    TITLE "0:"
    INDEX 01 01:01:27
  TRACK 50 AUDIO
    TITLE "2:cjc116_1908"
    INDEX 01 01:02:05
  TRACK 51 AUDIO
    TITLE "0:"
    INDEX 01 01:03:67
  TRACK 52 AUDIO
    TITLE "2:cjc116_1909"
    INDEX 01 01:04:31
  TRACK 53 AUDIO
    TITLE "0:"
    INDEX 01 01:05:60
  TRACK 54 AUDIO
    TITLE "2:cjc116_1910"
    INDEX 01 01:06:22
  TRACK 55 AUDIO
    TITLE "0:"
    INDEX 01 01:07:68
  TRACK 56 AUDIO
    TITLE "2:cjc116_1911"
    INDEX 01 01:08:31
  TRACK 57 AUDIO
    TITLE "0:"
    INDEX 01 01:10:14
  TRACK 58 AUDIO
    TITLE "2:cjc116_1912"
    INDEX 01 01:10:51
  TRACK 59 AUDIO
    TITLE "0:"
    INDEX 01 01:12:36
  TRACK 60 AUDIO
    TITLE "2:cjc116_1913"
    INDEX 01 01:12:73
  TRACK 61 AUDIO
    TITLE "0:"
    INDEX 01 01:14:23
  TRACK 62 AUDIO
    TITLE "2:cjc116_1914"
    INDEX 01 01:14:65
  TRACK 63 AUDIO
    TITLE "0:"
    INDEX 01 01:18:74
  TRACK 64 AUDIO
    TITLE "2:cjc116_1915"
    INDEX 01 01:19:42
  TRACK 65 AUDIO
    TITLE "0:"
    INDEX 01 01:21:37
  TRACK 66 AUDIO
    TITLE "2:cjc116_1916"
    INDEX 01 01:22:05
  TRACK 67 AUDIO
    TITLE "0:"
    INDEX 01 01:23:48
  TRACK 68 AUDIO
    TITLE "2:cjc116_1917"
    INDEX 01 01:24:06
  TRACK 69 AUDIO
    TITLE "0:"
    INDEX 01 01:25:43
  TRACK 70 AUDIO
    TITLE "2:cjc116_1918"
    INDEX 01 01:26:15
  TRACK 71 AUDIO
    TITLE "0:"
    INDEX 01 01:27:57
  TRACK 72 AUDIO
    TITLE "2:cjc116_1919"
    INDEX 01 01:28:20
  TRACK 73 AUDIO
    TITLE "0:"
    INDEX 01 01:29:60
  TRACK 74 AUDIO
    TITLE "2:cjc116_1920"
    INDEX 01 01:30:30
  TRACK 75 AUDIO
    TITLE "0:"
    INDEX 01 01:32:31
  TRACK 76 AUDIO
    TITLE "2:cjc116_1921"
    INDEX 01 01:32:70
  TRACK 77 AUDIO
    TITLE "0:"
    INDEX 01 01:34:44
  TRACK 78 AUDIO
    TITLE "2:cjc116_1922"
    INDEX 01 01:35:10
  TRACK 79 AUDIO
    TITLE "0:"
    INDEX 01 01:36:41
  TRACK 80 AUDIO
    TITLE "2:cjc116_1923"
    INDEX 01 01:37:05
  TRACK 81 AUDIO
    TITLE "0:"
    INDEX 01 01:38:53
  TRACK 82 AUDIO
    TITLE "2:cjc116_1924"
    INDEX 01 01:39:21
  TRACK 83 AUDIO
    TITLE "0:"
    INDEX 01 01:40:42
  TRACK 84 AUDIO
    TITLE "2:cjc116_1925"
    INDEX 01 01:41:07
  TRACK 85 AUDIO
    TITLE "0:"
    INDEX 01 01:42:61
  TRACK 86 AUDIO
    TITLE "2:cjc116_1926"
    INDEX 01 01:43:31
  TRACK 87 AUDIO
    TITLE "0:"
    INDEX 01 01:45:26
  TRACK 88 AUDIO
    TITLE "2:cjc116_1927"
    INDEX 01 01:45:63
  TRACK 89 AUDIO
    TITLE "0:"
    INDEX 01 01:47:25
  TRACK 90 AUDIO
    TITLE "2:cjc116_1928"
    INDEX 01 01:47:70
  TRACK 91 AUDIO
    TITLE "0:"
    INDEX 01 01:49:45
  TRACK 92 AUDIO
    TITLE "2:cjc116_1929"
    INDEX 01 01:50:09
  TRACK 93 AUDIO
    TITLE "0:"
    INDEX 01 01:52:22
  TRACK 94 AUDIO
    TITLE "2:cjc116_1930"
    INDEX 01 01:52:61
  TRACK 95 AUDIO
    TITLE "0:"
    INDEX 01 01:54:52
  TRACK 96 AUDIO
    TITLE "2:cjc116_1931"
    INDEX 01 01:55:13
  TRACK 97 AUDIO
    TITLE "0:"
    INDEX 01 01:56:20
  TRACK 98 AUDIO
    TITLE "2:cjc116_1932"
    INDEX 01 01:56:65
  TRACK 99 AUDIO
    TITLE "0:"
    INDEX 01 01:58:50
  TRACK 100 AUDIO
    TITLE "2:cjc116_1933"
    INDEX 01 01:59:04
  TRACK 101 AUDIO
    TITLE "0:"
    INDEX 01 02:00:25
  TRACK 102 AUDIO
    TITLE "2:cjc116_1934"
    INDEX 01 02:00:67
  TRACK 103 AUDIO
    TITLE "0:"
    INDEX 01 02:02:13
  TRACK 104 AUDIO
    TITLE "2:cjc116_1935"
    INDEX 01 02:02:52
  TRACK 105 AUDIO
    TITLE "0:"
    INDEX 01 02:04:02
  TRACK 106 AUDIO
    TITLE "2:cjc116_1936"
    INDEX 01 02:04:49
  TRACK 107 AUDIO
    TITLE "0:"
    INDEX 01 02:05:68
  TRACK 108 AUDIO
    TITLE "2:cjc116_1937"
    INDEX 01 02:06:32
  TRACK 109 AUDIO
    TITLE "0:"
    INDEX 01 02:08:23
  TRACK 110 AUDIO
    TITLE "2:cjc116_1938"
    INDEX 01 02:08:66
  TRACK 111 AUDIO
    TITLE "0:"
    INDEX 01 02:10:40
  TRACK 112 AUDIO
    TITLE "2:cjc116_1939"
    INDEX 01 02:11:06
  TRACK 113 AUDIO
    TITLE "0:"
    INDEX 01 02:12:09
  TRACK 114 AUDIO
    TITLE "2:cjc116_1940"
    INDEX 01 02:12:35
  TRACK 115 AUDIO
    TITLE "0:"
    INDEX 01 02:13:57
  TRACK 116 AUDIO
    TITLE "3:cjc116_1941"
    INDEX 01 02:15:35
  TRACK 117 AUDIO
    TITLE "0:"
    INDEX 01 02:17:38
  TRACK 118 AUDIO
    TITLE "2:cjc116_1942"
    INDEX 01 02:18:16
  TRACK 119 AUDIO
    TITLE "0:"
    INDEX 01 02:19:58
  TRACK 120 AUDIO
    TITLE "2:cjc116_1943"
    INDEX 01 02:20:22
  TRACK 121 AUDIO
    TITLE "0:"
    INDEX 01 02:21:69
  TRACK 122 AUDIO
    TITLE "2:cjc116_1944"
    INDEX 01 02:22:35
  TRACK 123 AUDIO
    TITLE "0:"
    INDEX 01 02:24:22
  TRACK 124 AUDIO
    TITLE "2:cjc116_1945"
    INDEX 01 02:24:67
  TRACK 125 AUDIO
    TITLE "0:"
    INDEX 01 02:26:35
  TRACK 126 AUDIO
    TITLE "2:cjc116_1946"
    INDEX 01 02:27:05
  TRACK 127 AUDIO
    TITLE "0:"
    INDEX 01 02:28:37
  TRACK 128 AUDIO
    TITLE "2:cjc116_1947"
    INDEX 01 02:29:08
  TRACK 129 AUDIO
    TITLE "0:"
    INDEX 01 02:30:54
  TRACK 130 AUDIO
    TITLE "2:cjc116_1948"
    INDEX 01 02:31:16
  TRACK 131 AUDIO
    TITLE "0:"
    INDEX 01 02:32:43
  TRACK 132 AUDIO
    TITLE "2:cjc116_1949"
    INDEX 01 02:33:09
  TRACK 133 AUDIO
    TITLE "0:"
    INDEX 01 02:34:56
  TRACK 134 AUDIO
    TITLE "2:cjc116_1950"
    INDEX 01 02:35:22
  TRACK 135 AUDIO
    TITLE "0:"
    INDEX 01 02:36:53
  TRACK 136 AUDIO
    TITLE "2:cjc116_1951"
    INDEX 01 02:37:27
  TRACK 137 AUDIO
    TITLE "0:"
    INDEX 01 02:38:67
  TRACK 138 AUDIO
    TITLE "2:cjc116_1952"
    INDEX 01 02:39:29
  TRACK 139 AUDIO
    TITLE "0:"
    INDEX 01 02:40:74
  TRACK 140 AUDIO
    TITLE "2:cjc116_1953"
    INDEX 01 02:41:40
  TRACK 141 AUDIO
    TITLE "0:"
    INDEX 01 02:43:41
  TRACK 142 AUDIO
    TITLE "2:cjc116_1954"
    INDEX 01 02:44:07
  TRACK 143 AUDIO
    TITLE "0:"
    INDEX 01 02:45:16
  TRACK 144 AUDIO
    TITLE "2:cjc116_1955"
    INDEX 01 02:45:61
  TRACK 145 AUDIO
    TITLE "0:"
    INDEX 01 02:47:15
  TRACK 146 AUDIO
    TITLE "2:cjc116_1956"
    INDEX 01 02:47:54
  TRACK 147 AUDIO
    TITLE "0:"
    INDEX 01 02:49:28
  TRACK 148 AUDIO
    TITLE "2:cjc116_1957"
    INDEX 01 02:49:67
  TRACK 149 AUDIO
    TITLE "0:"
    INDEX 01 02:51:37
  TRACK 150 AUDIO
    TITLE "2:cjc116_1958"
    INDEX 01 02:51:74
  TRACK 151 AUDIO
    TITLE "0:"
    INDEX 01 02:53:02
  TRACK 152 AUDIO
    TITLE "2:cjc116_1959"
    INDEX 01 02:53:49
  TRACK 153 AUDIO
    TITLE "0:"
    INDEX 01 02:54:62
  TRACK 154 AUDIO
    TITLE "2:cjc116_1960"
    INDEX 01 02:55:19
  TRACK 155 AUDIO
    TITLE "0:"
    INDEX 01 02:56:71
  TRACK 156 AUDIO
    TITLE "2:cjc116_1961"
    INDEX 01 02:57:41
  TRACK 157 AUDIO
    TITLE "0:"
    INDEX 01 02:58:66
  TRACK 158 AUDIO
    TITLE "2:cjc116_1962"
    INDEX 01 02:59:28
  TRACK 159 AUDIO
    TITLE "0:"
    INDEX 01 03:00:65
  TRACK 160 AUDIO
    TITLE "2:cjc116_1963"
    INDEX 01 03:01:27
  TRACK 161 AUDIO
    TITLE "0:"
    INDEX 01 03:02:62
  TRACK 162 AUDIO
    TITLE "2:cjc116_1964"
    INDEX 01 03:03:28
  TRACK 163 AUDIO
    TITLE "0:"
    INDEX 01 03:05:27
  TRACK 164 AUDIO
    TITLE "2:cjc116_1965"
    INDEX 01 03:05:74
  TRACK 165 AUDIO
    TITLE "0:"
    INDEX 01 03:07:57
  TRACK 166 AUDIO
    TITLE "2:cjc116_1966"
    INDEX 01 03:08:25
  TRACK 167 AUDIO
    TITLE "0:"
    INDEX 01 03:09:64
  TRACK 168 AUDIO
    TITLE "2:cjc116_1967"
    INDEX 01 03:10:32
  TRACK 169 AUDIO
    TITLE "0:"
    INDEX 01 03:11:63
  TRACK 170 AUDIO
    TITLE "2:cjc116_1968"
    INDEX 01 03:12:25
  TRACK 171 AUDIO
    TITLE "0:"
    INDEX 01 03:14:08
  TRACK 172 AUDIO
    TITLE "2:cjc116_1969"
    INDEX 01 03:14:47
  TRACK 173 AUDIO
    TITLE "0:"
    INDEX 01 03:16:38
  TRACK 174 AUDIO
    TITLE "2:cjc116_1970"
    INDEX 01 03:16:74
  TRACK 175 AUDIO
    TITLE "0:"
    INDEX 01 03:18:20
  TRACK 176 AUDIO
    TITLE "2:cjc116_1971"
    INDEX 01 03:18:67
  TRACK 177 AUDIO
    TITLE "0:"
    INDEX 01 03:20:68
  TRACK 178 AUDIO
    TITLE "2:cjc116_1972"
    INDEX 01 03:21:30
  TRACK 179 AUDIO
    TITLE "0:"
    INDEX 01 03:22:65
  TRACK 180 AUDIO
    TITLE "2:cjc116_1973"
    INDEX 01 03:23:37
  TRACK 181 AUDIO
    TITLE "0:"
    INDEX 01 03:25:08
  TRACK 182 AUDIO
    TITLE "2:cjc116_1974"
    INDEX 01 03:25:47
  TRACK 183 AUDIO
    TITLE "0:"
    INDEX 01 03:27:42
  TRACK 184 AUDIO
    TITLE "2:cjc116_1975"
    INDEX 01 03:28:04
  TRACK 185 AUDIO
    TITLE "0:"
    INDEX 01 03:30:27
  TRACK 186 AUDIO
    TITLE "2:cjc116_1976"
    INDEX 01 03:30:66
  TRACK 187 AUDIO
    TITLE "0:"
    INDEX 01 03:32:26
  TRACK 188 AUDIO
    TITLE "2:cjc116_1977"
    INDEX 01 03:33:08
  TRACK 189 AUDIO
    TITLE "0:"
    INDEX 01 03:35:40
  TRACK 190 AUDIO
    TITLE "2:cjc116_1978"
    INDEX 01 03:36:04
  TRACK 191 AUDIO
    TITLE "0:"
    INDEX 01 03:37:07
  TRACK 192 AUDIO
    TITLE "2:cjc116_1979"
    INDEX 01 03:37:48
  TRACK 193 AUDIO
    TITLE "0:"
    INDEX 01 03:38:73
  TRACK 194 AUDIO
    TITLE "2:cjc116_1980"
    INDEX 01 03:39:43
  TRACK 195 AUDIO
    TITLE "0:"
    INDEX 01 03:40:59
  TRACK 196 AUDIO
    TITLE "2:cjc116_1981"
    INDEX 01 03:41:29
  TRACK 197 AUDIO
    TITLE "0:"
    INDEX 01 03:42:52
  TRACK 198 AUDIO
    TITLE "2:cjc116_1982"
    INDEX 01 03:43:14
  TRACK 199 AUDIO
    TITLE "0:"
    INDEX 01 03:45:19
  TRACK 200 AUDIO
    TITLE "2:cjc116_1983"
    INDEX 01 03:45:56
  TRACK 201 AUDIO
    TITLE "0:"
    INDEX 01 03:46:63
  TRACK 202 AUDIO
    TITLE "2:cjc116_1984"
    INDEX 01 03:47:25
  TRACK 203 AUDIO
    TITLE "0:"
    INDEX 01 03:48:38
  TRACK 204 AUDIO
    TITLE "2:cjc116_1985"
    INDEX 01 03:49:03
  TRACK 205 AUDIO
    TITLE "0:"
    INDEX 01 03:50:12
  TRACK 206 AUDIO
    TITLE "2:cjc116_1986"
    INDEX 01 03:50:47
  TRACK 207 AUDIO
    TITLE "0:"
    INDEX 01 03:52:46
  TRACK 208 AUDIO
    TITLE "2:cjc116_1987"
    INDEX 01 03:53:16
  TRACK 209 AUDIO
    TITLE "0:"
    INDEX 01 03:55:17
  TRACK 210 AUDIO
    TITLE "2:cjc116_1988"
    INDEX 01 03:55:52
  TRACK 211 AUDIO
    TITLE "0:"
    INDEX 01 03:57:12
  TRACK 212 AUDIO
    TITLE "2:cjc116_1989"
    INDEX 01 03:57:57
  TRACK 213 AUDIO
    TITLE "0:"
    INDEX 01 03:59:32
  TRACK 214 AUDIO
    TITLE "2:cjc116_1990"
    INDEX 01 03:59:72
  TRACK 215 AUDIO
    TITLE "0:"
    INDEX 01 04:01:45
  TRACK 216 AUDIO
    TITLE "2:cjc116_1991"
    INDEX 01 04:02:11
  TRACK 217 AUDIO
    TITLE "0:"
    INDEX 01 04:03:46
  TRACK 218 AUDIO
    TITLE "2:cjc116_1992"
    INDEX 01 04:04:10
  TRACK 219 AUDIO
    TITLE "0:"
    INDEX 01 04:05:74
  TRACK 220 AUDIO
    TITLE "2:cjc116_1993"
    INDEX 01 04:06:36
  TRACK 221 AUDIO
    TITLE "0:"
    INDEX 01 04:08:18
  TRACK 222 AUDIO
    TITLE "2:cjc116_1994"
    INDEX 01 04:08:61
  TRACK 223 AUDIO
    TITLE "0:"
    INDEX 01 04:10:03
  TRACK 224 AUDIO
    TITLE "2:cjc116_1995"
    INDEX 01 04:10:46
  TRACK 225 AUDIO
    TITLE "0:"
    INDEX 01 04:12:10
  TRACK 226 AUDIO
    TITLE "2:cjc116_1996"
    INDEX 01 04:12:47
  TRACK 227 AUDIO
    TITLE "0:"
    INDEX 01 04:14:30
  TRACK 228 AUDIO
    TITLE "2:cjc116_1997"
    INDEX 01 04:14:67
  TRACK 229 AUDIO
    TITLE "0:"
    INDEX 01 04:16:43
  TRACK 230 AUDIO
    TITLE "2:cjc116_1998"
    INDEX 01 04:17:05
  TRACK 231 AUDIO
    TITLE "0:"
    INDEX 01 04:18:59
  TRACK 232 AUDIO
    TITLE "2:cjc116_1999"
    INDEX 01 04:19:21
  TRACK 233 AUDIO
    TITLE "0:"
    INDEX 01 04:20:66
  TRACK 234 AUDIO
    TITLE "2:cjc116_2000"
    INDEX 01 04:21:30
  TRACK 235 AUDIO
    TITLE "0:"
    INDEX 01 04:22:61
  TRACK 236 AUDIO
    TITLE "2:cjc116_2001"
    INDEX 01 04:23:35
  TRACK 237 AUDIO
    TITLE "0:"
    INDEX 01 04:25:10
  TRACK 238 AUDIO
    TITLE "2:cjc116_2002"
    INDEX 01 04:25:49
  TRACK 239 AUDIO
    TITLE "0:"
    INDEX 01 04:27:03
  TRACK 240 AUDIO
    TITLE "2:cjc116_2003"
    INDEX 01 04:27:46
  TRACK 241 AUDIO
    TITLE "0:"
    INDEX 01 04:29:18
  TRACK 242 AUDIO
    TITLE "2:cjc116_2004"
    INDEX 01 04:29:57
  TRACK 243 AUDIO
    TITLE "0:"
    INDEX 01 04:31:54
  TRACK 244 AUDIO
    TITLE "2:cjc116_2005"
    INDEX 01 04:32:18
  TRACK 245 AUDIO
    TITLE "0:"
    INDEX 01 04:33:47
  TRACK 246 AUDIO
    TITLE "2:cjc116_2006"
    INDEX 01 04:34:09
  TRACK 247 AUDIO
    TITLE "0:"
    INDEX 01 04:35:60
  TRACK 248 AUDIO
    TITLE "2:cjc116_2007"
    INDEX 01 04:36:22
  TRACK 249 AUDIO
    TITLE "0:"
    INDEX 01 04:37:64
  TRACK 250 AUDIO
    TITLE "2:cjc116_2008"
    INDEX 01 04:38:27
  TRACK 251 AUDIO
    TITLE "0:"
    INDEX 01 04:40:45
  TRACK 252 AUDIO
    TITLE "2:cjc116_2009"
    INDEX 01 04:41:09
  TRACK 253 AUDIO
    TITLE "0:"
    INDEX 01 04:43:39
  TRACK 254 AUDIO
    TITLE "2:cjc116_2010"
    INDEX 01 04:44:02
  TRACK 255 AUDIO
    TITLE "0:"
    INDEX 01 04:45:56
  TRACK 256 AUDIO
    TITLE "2:cjc116_2011"
    INDEX 01 04:46:26
  TRACK 257 AUDIO
    TITLE "0:"
    INDEX 01 04:48:31
  TRACK 258 AUDIO
    TITLE "2:cjc116_2012"
    INDEX 01 04:48:68
  TRACK 259 AUDIO
    TITLE "0:"
    INDEX 01 04:50:18
  TRACK 260 AUDIO
    TITLE "2:cjc116_2013"
    INDEX 01 04:50:73
  TRACK 261 AUDIO
    TITLE "0:"
    INDEX 01 04:52:19
  TRACK 262 AUDIO
    TITLE "2:cjc116_2014"
    INDEX 01 04:52:58
  TRACK 263 AUDIO
    TITLE "0:"
    INDEX 01 04:54:14
  TRACK 264 AUDIO
    TITLE "2:cjc116_2015"
    INDEX 01 04:54:65
  TRACK 265 AUDIO
    TITLE "0:"
    INDEX 01 04:56:26
  TRACK 266 AUDIO
    TITLE "2:cjc116_2016"
    INDEX 01 04:56:66
  TRACK 267 AUDIO
    TITLE "0:"
    INDEX 01 04:58:43
  TRACK 268 AUDIO
    TITLE "2:cjc116_2017"
    INDEX 01 04:59:07
  TRACK 269 AUDIO
    TITLE "0:"
    INDEX 01 05:01:04
  TRACK 270 AUDIO
    TITLE "2:cjc116_2018"
    INDEX 01 05:01:45
  TRACK 271 AUDIO
    TITLE "0:"
    INDEX 01 05:03:13
  TRACK 272 AUDIO
    TITLE "2:cjc116_2019"
    INDEX 01 05:03:54
  TRACK 273 AUDIO
    TITLE "0:"
    INDEX 01 05:05:43
  TRACK 274 AUDIO
    TITLE "2:cjc116_2020"
    INDEX 01 05:06:05
  TRACK 275 AUDIO
    TITLE "0:"
    INDEX 01 05:07:18
  TRACK 276 AUDIO
    TITLE "2:cjc116_2021"
    INDEX 01 05:07:50
  TRACK 277 AUDIO
    TITLE "0:"
    INDEX 01 05:09:21
  TRACK 278 AUDIO
    TITLE "3:cjc116_2022"
    INDEX 01 05:10:74
  TRACK 279 AUDIO
    TITLE "0:"
    INDEX 01 05:14:01
  TRACK 280 AUDIO
    TITLE "2:cjc116_2023"
    INDEX 01 05:14:52
  TRACK 281 AUDIO
    TITLE "0:"
    INDEX 01 05:16:13
  TRACK 282 AUDIO
    TITLE "2:cjc116_2024"
    INDEX 01 05:16:59
  TRACK 283 AUDIO
    TITLE "0:"
    INDEX 01 05:18:06
  TRACK 284 AUDIO
    TITLE "2:cjc116_2025"
    INDEX 01 05:18:42
  TRACK 285 AUDIO
    TITLE "0:"
    INDEX 01 05:20:13
  TRACK 286 AUDIO
    TITLE "2:cjc116_2026"
    INDEX 01 05:20:58
  TRACK 287 AUDIO
    TITLE "0:"
    INDEX 01 05:21:73
  TRACK 288 AUDIO
    TITLE "2:cjc116_2027"
    INDEX 01 05:22:36
  TRACK 289 AUDIO
    TITLE "0:"
    INDEX 01 05:24:15
  TRACK 290 AUDIO
    TITLE "2:cjc116_2028"
    INDEX 01 05:24:56
  TRACK 291 AUDIO
    TITLE "0:"
    INDEX 01 05:26:22
  TRACK 292 AUDIO
    TITLE "2:cjc116_2029"
    INDEX 01 05:26:59
  TRACK 293 AUDIO
    TITLE "0:"
    INDEX 01 05:28:28
  TRACK 294 AUDIO
    TITLE "2:cjc116_2030"
    INDEX 01 05:28:72
  TRACK 295 AUDIO
    TITLE "0:"
    INDEX 01 05:30:59
  TRACK 296 AUDIO
    TITLE "2:cjc116_2031"
    INDEX 01 05:31:19
  TRACK 297 AUDIO
    TITLE "0:"
    INDEX 01 05:32:60
  TRACK 298 AUDIO
    TITLE "2:cjc116_2032"
    INDEX 01 05:33:24
  TRACK 299 AUDIO
    TITLE "0:"
    INDEX 01 05:34:66
  TRACK 300 AUDIO
    TITLE "2:cjc116_2033"
    INDEX 01 05:35:27
  TRACK 301 AUDIO
    TITLE "0:"
    INDEX 01 05:37:33
  TRACK 302 AUDIO
    TITLE "2:cjc116_2034"
    INDEX 01 05:38:01
  TRACK 303 AUDIO
    TITLE "0:"
    INDEX 01 05:40:10
  TRACK 304 AUDIO
    TITLE "2:cjc116_2035"
    INDEX 01 05:40:47
  TRACK 305 AUDIO
    TITLE "0:"
    INDEX 01 05:42:09
  TRACK 306 AUDIO
    TITLE "2:cjc116_2036"
    INDEX 01 05:42:46
  TRACK 307 AUDIO
    TITLE "0:"
    INDEX 01 05:44:06
  TRACK 308 AUDIO
    TITLE "2:cjc116_2037"
    INDEX 01 05:44:47
  TRACK 309 AUDIO
    TITLE "0:"
    INDEX 01 05:46:48
  TRACK 310 AUDIO
    TITLE "2:cjc116_2038"
    INDEX 01 05:47:12
  TRACK 311 AUDIO
    TITLE "0:"
    INDEX 01 05:49:36
  TRACK 312 AUDIO
    TITLE "2:cjc116_2039"
    INDEX 01 05:50:01
  TRACK 313 AUDIO
    TITLE "0:"
    INDEX 01 05:51:41
  TRACK 314 AUDIO
    TITLE "2:cjc116_2040"
    INDEX 01 05:52:07
  TRACK 315 AUDIO
    TITLE "0:"
    INDEX 01 05:53:36
  TRACK 316 AUDIO
    TITLE "2:cjc116_2041"
    INDEX 01 05:54:02
  TRACK 317 AUDIO
    TITLE "0:"
    INDEX 01 05:55:37
  TRACK 318 AUDIO
    TITLE "2:cjc116_2042"
    INDEX 01 05:56:01
  TRACK 319 AUDIO
    TITLE "0:"
    INDEX 01 05:57:01
  TRACK 320 AUDIO
    TITLE "2:cjc116_2043"
    INDEX 01 05:57:38
  TRACK 321 AUDIO
    TITLE "0:"
    INDEX 01 05:59:07
  TRACK 322 AUDIO
    TITLE "2:cjc116_2044"
    INDEX 01 05:59:47
  TRACK 323 AUDIO
    TITLE "0:"
    INDEX 01 06:01:22
  TRACK 324 AUDIO
    TITLE "2:cjc116_2045"
    INDEX 01 06:01:61
  TRACK 325 AUDIO
    TITLE "0:"
    INDEX 01 06:03:37
  TRACK 326 AUDIO
    TITLE "2:cjc116_2046"
    INDEX 01 06:03:74
  TRACK 327 AUDIO
    TITLE "0:"
    INDEX 01 06:05:43
  TRACK 328 AUDIO
    TITLE "2:cjc116_2047"
    INDEX 01 06:06:07
  TRACK 329 AUDIO
    TITLE "0:"
    INDEX 01 06:07:56
  TRACK 330 AUDIO
    TITLE "2:cjc116_2048"
    INDEX 01 06:08:18
  TRACK 331 AUDIO
    TITLE "0:"
    INDEX 01 06:09:63
  TRACK 332 AUDIO
    TITLE "2:cjc116_2049"
    INDEX 01 06:10:27
  TRACK 333 AUDIO
    TITLE "0:"
    INDEX 01 06:12:14
  TRACK 334 AUDIO
    TITLE "2:cjc116_2050"
    INDEX 01 06:12:61
  TRACK 335 AUDIO
    TITLE "0:"
    INDEX 01 06:15:08
  TRACK 336 AUDIO
    TITLE "2:cjc116_2051"
    INDEX 01 06:15:48
  TRACK 337 AUDIO
    TITLE "0:"
    INDEX 01 06:17:19
  TRACK 338 AUDIO
    TITLE "2:cjc116_2052"
    INDEX 01 06:17:64
  TRACK 339 AUDIO
    TITLE "0:"
    INDEX 01 06:19:26
  TRACK 340 AUDIO
    TITLE "2:cjc116_2053"
    INDEX 01 06:19:65
  TRACK 341 AUDIO
    TITLE "0:"
    INDEX 01 06:21:33
  TRACK 342 AUDIO
    TITLE "2:cjc116_2054"
    INDEX 01 06:21:72
  TRACK 343 AUDIO
    TITLE "0:"
    INDEX 01 06:23:41
  TRACK 344 AUDIO
    TITLE "2:cjc116_2055"
    INDEX 01 06:24:07
  TRACK 345 AUDIO
    TITLE "0:"
    INDEX 01 06:25:38
  TRACK 346 AUDIO
    TITLE "2:cjc116_2056"
    INDEX 01 06:26:10
  TRACK 347 AUDIO
    TITLE "0:"
    INDEX 01 06:27:47
  TRACK 348 AUDIO
    TITLE "2:cjc116_2057"
    INDEX 01 06:28:15
  TRACK 349 AUDIO
    TITLE "0:"
    INDEX 01 06:29:67
  TRACK 350 AUDIO
    TITLE "2:cjc116_2058"
    INDEX 01 06:30:31
  TRACK 351 AUDIO
    TITLE "0:"
    INDEX 01 06:31:39
  TRACK 352 AUDIO
    TITLE "2:cjc116_2059"
    INDEX 01 06:32:07
  TRACK 353 AUDIO
    TITLE "0:"
    INDEX 01 06:33:40
  TRACK 354 AUDIO
    TITLE "2:cjc116_2060"
    INDEX 01 06:34:10
  TRACK 355 AUDIO
    TITLE "0:"
    INDEX 01 06:35:29
  TRACK 356 AUDIO
    TITLE "2:cjc116_2061"
    INDEX 01 06:35:70
  TRACK 357 AUDIO
    TITLE "0:"
    INDEX 01 06:37:41
  TRACK 358 AUDIO
    TITLE "2:cjc116_2062"
    INDEX 01 06:38:11
  TRACK 359 AUDIO
    TITLE "0:"
    INDEX 01 06:39:42
  TRACK 360 AUDIO
    TITLE "2:cjc116_2063"
    INDEX 01 06:40:06
  TRACK 361 AUDIO
    TITLE "0:"
    INDEX 01 06:41:47
  TRACK 362 AUDIO
    TITLE "2:cjc116_2064"
    INDEX 01 06:42:09
  TRACK 363 AUDIO
    TITLE "0:"
    INDEX 01 06:43:28
  TRACK 364 AUDIO
    TITLE "2:cjc116_2065"
    INDEX 01 06:43:63
  TRACK 365 AUDIO
    TITLE "0:"
    INDEX 01 06:45:72
  TRACK 366 AUDIO
    TITLE "2:cjc116_2066"
    INDEX 01 06:46:34
  TRACK 367 AUDIO
    TITLE "0:"
    INDEX 01 06:48:16
  TRACK 368 AUDIO
    TITLE "2:cjc116_2067"
    INDEX 01 06:48:55
  TRACK 369 AUDIO
    TITLE "0:"
    INDEX 01 06:50:18
  TRACK 370 AUDIO
    TITLE "2:cjc116_2068"
    INDEX 01 06:50:58
  TRACK 371 AUDIO
    TITLE "0:"
    INDEX 01 06:52:33
  TRACK 372 AUDIO
    TITLE "2:cjc116_2069"
    INDEX 01 06:53:03
  TRACK 373 AUDIO
    TITLE "0:"
    INDEX 01 06:54:34
  TRACK 374 AUDIO
    TITLE "2:cjc116_2070"
    INDEX 01 06:54:71
  TRACK 375 AUDIO
    TITLE "0:"
    INDEX 01 06:56:72
  TRACK 376 AUDIO
    TITLE "2:cjc116_2071"
    INDEX 01 06:57:36
  TRACK 377 AUDIO
    TITLE "0:"
    INDEX 01 06:58:65
  TRACK 378 AUDIO
    TITLE "2:cjc116_2072"
    INDEX 01 06:59:33
  TRACK 379 AUDIO
    TITLE "0:"
    INDEX 01 07:00:58
  TRACK 380 AUDIO
    TITLE "2:cjc116_2073"
    INDEX 01 07:01:22
  TRACK 381 AUDIO
    TITLE "0:"
    INDEX 01 07:02:67
  TRACK 382 AUDIO
    TITLE "2:cjc116_2074"
    INDEX 01 07:03:27
  TRACK 383 AUDIO
    TITLE "0:"
    INDEX 01 07:04:56
  TRACK 384 AUDIO
    TITLE "2:cjc116_2075"
    INDEX 01 07:05:20
  TRACK 385 AUDIO
    TITLE "0:"
    INDEX 01 07:06:29
  TRACK 386 AUDIO
    TITLE "2:cjc116_2076"
    INDEX 01 07:06:72
  TRACK 387 AUDIO
    TITLE "0:"
    INDEX 01 07:08:03
  TRACK 388 AUDIO
    TITLE "2:cjc116_2077"
    INDEX 01 07:08:40
  TRACK 389 AUDIO
    TITLE "0:"
    INDEX 01 07:09:65
  TRACK 390 AUDIO
    TITLE "2:cjc116_2078"
    INDEX 01 07:10:31
  TRACK 391 AUDIO
    TITLE "0:"
    INDEX 01 07:12:24
  TRACK 392 AUDIO
    TITLE "2:cjc116_2079"
    INDEX 01 07:12:59
  TRACK 393 AUDIO
    TITLE "0:"
    INDEX 01 07:14:72
  TRACK 394 AUDIO
    TITLE "2:cjc116_2080"
    INDEX 01 07:15:36
  TRACK 395 AUDIO
    TITLE "0:"
    INDEX 01 07:17:39
  TRACK 396 AUDIO
    TITLE "2:cjc116_2081"
    INDEX 01 07:17:68
  TRACK 397 AUDIO
    TITLE "0:"
    INDEX 01 07:19:36
  TRACK 398 AUDIO
    TITLE "2:cjc116_2082"
    INDEX 01 07:20:04
  TRACK 399 AUDIO
    TITLE "0:"
    INDEX 01 07:21:29
  TRACK 400 AUDIO
    TITLE "2:cjc116_2083"
    INDEX 01 07:21:68
  TRACK 401 AUDIO
    TITLE "0:"
    INDEX 01 07:23:71
  TRACK 402 AUDIO
    TITLE "2:cjc116_2084"
    INDEX 01 07:24:39
  TRACK 403 AUDIO
    TITLE "0:"
    INDEX 01 07:25:70
  TRACK 404 AUDIO
    TITLE "2:cjc116_2085"
    INDEX 01 07:26:30
  TRACK 405 AUDIO
    TITLE "0:"
    INDEX 01 07:27:57
  TRACK 406 AUDIO
    TITLE "2:cjc116_2086"
    INDEX 01 07:28:19
  TRACK 407 AUDIO
    TITLE "0:"
    INDEX 01 07:29:54
  TRACK 408 AUDIO
    TITLE "2:cjc116_2087"
    INDEX 01 07:30:12
  TRACK 409 AUDIO
    TITLE "0:"
    INDEX 01 07:31:57
  TRACK 410 AUDIO
    TITLE "2:cjc116_2088"
    INDEX 01 07:32:23
  TRACK 411 AUDIO
    TITLE "0:"
    INDEX 01 07:34:02
  TRACK 412 AUDIO
    TITLE "2:cjc116_2089"
    INDEX 01 07:34:41
  TRACK 413 AUDIO
    TITLE "0:"
    INDEX 01 07:36:07
  TRACK 414 AUDIO
    TITLE "2:cjc116_2090"
    INDEX 01 07:36:50
  TRACK 415 AUDIO
    TITLE "0:"
    INDEX 01 07:38:06
  TRACK 416 AUDIO
    TITLE "2:cjc116_2091"
    INDEX 01 07:38:47
  TRACK 417 AUDIO
    TITLE "0:"
    INDEX 01 07:40:54
  TRACK 418 AUDIO
    TITLE "2:cjc116_2092"
    INDEX 01 07:41:18
  TRACK 419 AUDIO
    TITLE "0:"
    INDEX 01 07:43:44
  TRACK 420 AUDIO
    TITLE "2:cjc116_2093"
    INDEX 01 07:44:10
  TRACK 421 AUDIO
    TITLE "0:"
    INDEX 01 07:45:57
  TRACK 422 AUDIO
    TITLE "2:cjc116_2094"
    INDEX 01 07:46:19
  TRACK 423 AUDIO
    TITLE "0:"
    INDEX 01 07:47:32
  TRACK 424 AUDIO
    TITLE "2:cjc116_2095"
    INDEX 01 07:47:69
  TRACK 425 AUDIO
    TITLE "0:"
    INDEX 01 07:49:55
  TRACK 426 AUDIO
    TITLE "2:cjc116_2096"
    INDEX 01 07:50:21
  TRACK 427 AUDIO
    TITLE "0:"
    INDEX 01 07:51:59
  TRACK 428 AUDIO
    TITLE "2:cjc116_2097"
    INDEX 01 07:52:22
  TRACK 429 AUDIO
    TITLE "0:"
    INDEX 01 07:54:01
  TRACK 430 AUDIO
    TITLE "2:cjc116_2098"
    INDEX 01 07:54:44
  TRACK 431 AUDIO
    TITLE "0:"
    INDEX 01 07:56:39
  TRACK 432 AUDIO
    TITLE "2:cjc116_2099"
    INDEX 01 07:57:03
  TRACK 433 AUDIO
    TITLE "0:"
    INDEX 01 07:58:46
  TRACK 434 AUDIO
    TITLE "2:cjc116_2100"
    INDEX 01 07:59:16
  TRACK 435 AUDIO
    TITLE "0:"
    INDEX 01 08:00:62
  TRACK 436 AUDIO
    TITLE "2:cjc116_2101"
    INDEX 01 08:01:24
  TRACK 437 AUDIO
    TITLE "0:"
    INDEX 01 08:02:55
  TRACK 438 AUDIO
    TITLE "2:cjc116_2102"
    INDEX 01 08:03:19
  TRACK 439 AUDIO
    TITLE "0:"
    INDEX 01 08:04:50
  TRACK 440 AUDIO
    TITLE "2:cjc116_2103"
    INDEX 01 08:05:14
  TRACK 441 AUDIO
    TITLE "0:"
    INDEX 01 08:06:57
  TRACK 442 AUDIO
    TITLE "2:cjc116_2104"
    INDEX 01 08:07:23
  TRACK 443 AUDIO
    TITLE "0:"
    INDEX 01 08:09:02
  TRACK 444 AUDIO
    TITLE "2:cjc116_2105"
    INDEX 01 08:09:42
  TRACK 445 AUDIO
    TITLE "0:"
    INDEX 01 08:11:21
  TRACK 446 AUDIO
    TITLE "2:cjc116_2106"
    INDEX 01 08:11:66
  TRACK 447 AUDIO
    TITLE "0:"
    INDEX 01 08:13:39
  TRACK 448 AUDIO
    TITLE "2:cjc116_2107"
    INDEX 01 08:14:02
  TRACK 449 AUDIO
    TITLE "0:"
    INDEX 01 08:15:32
  TRACK 450 AUDIO
    TITLE "2:cjc116_2108"
    INDEX 01 08:15:72
  TRACK 451 AUDIO
    TITLE "0:"
    INDEX 01 08:17:59
  TRACK 452 AUDIO
    TITLE "2:cjc116_2109"
    INDEX 01 08:18:21
  TRACK 453 AUDIO
    TITLE "0:"
    INDEX 01 08:20:12
  TRACK 454 AUDIO
    TITLE "2:cjc116_2110"
    INDEX 01 08:20:53
  TRACK 455 AUDIO
    TITLE "0:"
    INDEX 01 08:22:07
  TRACK 456 AUDIO
    TITLE "2:cjc116_2111"
    INDEX 01 08:22:48
  TRACK 457 AUDIO
    TITLE "0:"
    INDEX 01 08:23:59
  TRACK 458 AUDIO
    TITLE "2:cjc116_2112"
    INDEX 01 08:24:29
  TRACK 459 AUDIO
    TITLE "0:"
    INDEX 01 08:25:39
  TRACK 460 AUDIO
    TITLE "2:cjc116_2113"
    INDEX 01 08:25:74
  TRACK 461 AUDIO
    TITLE "0:"
    INDEX 01 08:27:32
  TRACK 462 AUDIO
    TITLE "2:cjc116_2114"
    INDEX 01 08:27:61
  TRACK 463 AUDIO
    TITLE "0:"
    INDEX 01 08:29:34
